<?xml version="1.0" encoding="utf-8"?>
<!-- Generator: Adobe Illustrator 16.0.3, SVG Export Plug-In . SVG Version: 6.00 Build 0)  -->
<!DOCTYPE svg PUBLIC "-//W3C//DTD SVG 1.1//EN" "http://www.w3.org/Graphics/SVG/1.1/DTD/svg11.dtd">
<svg version="1.1" id="Layer_1" xmlns="http://www.w3.org/2000/svg" xmlns:xlink="http://www.w3.org/1999/xlink" x="0px" y="0px"
	 width="505.508px" height="499.271px" viewBox="0 0 505.508 499.271" enable-background="new 0 0 505.508 499.271"
	 xml:space="preserve">
<g>
	<rect x="85.831" y="198.619" fill="#758B97" width="5.256" height="8.684"/>
	<path fill="#758B97" d="M131.737,240.383v-0.6c-2.131-0.768,0.771-2.285,0-4.41s-1.143-4.266,0-6.225v-1.527
		c1.027-1.76,0.527-3.645,0-5.613c-0.527-1.965,1.768-3.471,0-4.482v-0.877c-1.967-1.123,0.393-2.881,0-5.111
		c-0.391-2.229-4.463-4.307-3-6.033v-1.35c1.314-1.557,0.18-3.365,0-5.396c-0.178-2.031-1.434-3.713-3-5.014v-1.133
		c-1.74-1.447,0-3.398,0-5.656c0-2.265-1.74-4.214,0-5.658v-1.133c1.566-1.303-0.178-2.984,0-5.018c0.129-1.44,0.631-2.77,0-3.978
		H74.503C8.3,168.935,0.64,158.131,0.64,158.131s-2.492,8.406,2.359,47.235C7.44,240.895,37.44,242.5,37.44,242.5h94.297
		C130.933,241.556,132.987,240.83,131.737,240.383z M74.796,222.596h-4.043v-19.406h-1.582v-0.545l2.127-7.559h3.498V222.596z
		 M95.165,220.082c0,1.676-0.826,2.514-2.479,2.514h-8.279c-1.664,0-2.496-0.838-2.496-2.514v-5.836h4.043v4.816h5.133v-8.279
		h-6.838c-1.629,0-2.443-0.826-2.443-2.479v-10.688c0-1.688,0.814-2.531,2.443-2.531h8.402c1.676,0,2.514,0.844,2.514,2.531V220.082
		z"/>
</g>
<g>
	<rect x="440.706" y="198.619" fill="#758B97" width="5.256" height="8.684"/>
	<rect x="420.513" y="198.619" fill="#758B97" width="5.256" height="8.684"/>
	<path fill="#758B97" d="M504.868,158.131c0,0-7.66,10.804-73.863,13.038h-47.5c-0.629,1.208-0.125,2.537,0,3.978
		c0.178,2.033-1.568,3.715,0,5.018v1.136c1.736,1.446,0,3.394,0,5.655s1.736,4.209,0,5.656v1.135c-1.568,1.299,0.178,2.98,0,5.014
		c-0.176,2.031-1.313,3.84,0,5.396v1.352c1.461,1.725,0.393,3.803,0,6.031c-0.395,2.229,1.963,3.988,0,5.113v0.875
		c-1.77,1.016,0.525,2.518,0,4.486c-0.527,1.963-6.023,3.85-5,5.609v1.529c1.141,1.955,0.775,4.096,0,6.221
		c-0.773,2.129,2.129,3.648,0,4.41v0.6c-1.248,0.447,0.805,1.173,0,2.117h89.563c0,0,30-1.605,34.439-37.134
		C507.36,166.537,504.868,158.131,504.868,158.131z M429.847,220.082c0,1.676-0.826,2.514-2.479,2.514h-8.279
		c-1.664,0-2.496-0.838-2.496-2.514v-5.836h4.043v4.816h5.133v-8.279h-6.838c-1.629,0-2.443-0.826-2.443-2.479v-10.688
		c0-1.688,0.814-2.531,2.443-2.531h8.402c1.676,0,2.514,0.844,2.514,2.531V220.082z M450.04,220.082
		c0,1.676-0.826,2.514-2.479,2.514h-8.279c-1.664,0-2.496-0.838-2.496-2.514v-5.836h4.043v4.816h5.133v-8.279h-6.838
		c-1.629,0-2.443-0.826-2.443-2.479v-10.688c0-1.688,0.814-2.531,2.443-2.531h8.402c1.676,0,2.514,0.844,2.514,2.531V220.082z"/>
</g>
<path fill="#758B97" d="M502.649,153.146c4.893-3.664-34.252-54.378-34.252-54.378c-10.803,48.495-9.721,64.38-9.721,64.38
	C486.376,162.065,497.929,156.682,502.649,153.146z"/>
<path fill="#758B97" d="M46.829,163.149c0,0,1.082-15.886-9.719-64.38c0,0-39.146,50.714-34.254,54.378
	C7.577,156.682,19.132,162.065,46.829,163.149z"/>
<path fill="#758B97" d="M157.978,193.324c0,0-0.574-4.589,8.609-4.781c0,0,31.184-1.342,34.246-1.532c0,0,35.008-0.575,45.531,0.19
	c0,0,5.166,0.196,8.418,1.151c0,0,4.973,1.34,22.768,0.19c0,0,62.98-3.941,69.672-4.706c0,0,6.279,1.683,6.047,8.111
	c0,0,0.232,8.266-6.58,8.497c0,0-79.854-3.103-93.82,0.339c0,0-15.164,2.153-39.334,4.019
	C175.886,207.71,157.786,198.683,157.978,193.324"/>
<path fill="#758B97" d="M291.384,206.209"/>
<g>
	<path fill="#758B97" d="M101.771,138.867l-24.281-9.276l1.773-4.641l9.686,3.7l3.571-9.349l-9.686-3.7l1.773-4.641l24.281,9.276
		l-1.773,4.641l-10.425-3.982l-3.572,9.349l10.426,3.983L101.771,138.867z"/>
	<path fill="#758B97" d="M92.836,95.076l3.137-5.341l26.188,6.818l-2.498,4.254l-5.573-1.603l-4.158,7.08l4.061,4.18l-2.498,4.254
		L92.836,95.076z M106.939,103.274l3.063-5.217l-11.228-3.21l-0.036,0.062L106.939,103.274z"/>
	<path fill="#758B97" d="M125.485,91.655l-19.753-16.889l4.538-5.308l17.04,7.987l0.047-0.055l-10.514-15.62l4.584-5.362
		l19.754,16.889l-2.808,3.283l-15.539-13.286l-0.047,0.055l11.75,17.718l-2.456,2.873L112.8,75.031l-0.047,0.055l15.54,13.287
		L125.485,91.655z"/>
	<path fill="#758B97" d="M147.401,67.753l-16.603-19.996l3.822-3.173l13.935,16.783l8.696-7.22l2.667,3.212L147.401,67.753z"/>
	<path fill="#758B97" d="M165.406,53.543l-13.496-22.21l14.704-8.935l2.169,3.568l-10.459,6.355l3.215,5.291l7.598-4.617
		l2.169,3.568l-7.599,4.617l3.776,6.214l10.797-6.561l2.168,3.568L165.406,53.543z"/>
	<path fill="#758B97" d="M191.767,11.041l1.619,3.85l-6.272,2.639l8.476,20.145l-4.58,1.927l-8.475-20.145l-6.273,2.639l-1.619-3.85
		L191.767,11.041z"/>
	<path fill="#758B97" d="M221.323,29.513l-4.043-25.68l10.243-1.613c5.833-0.918,8.713,2.091,9.415,6.318
		c0.534,3.16-0.664,5.973-3.653,7.354l7.458,10.563l-5.441,0.857l-6.484-9.695l-4.232,0.667l1.646,10.457L221.323,29.513z
		 M223.958,14.299l3.628-0.571c3.842-0.604,4.825-1.999,4.444-4.417c-0.381-2.418-2.03-3.398-4.733-2.973l-4.481,0.706
		L223.958,14.299z"/>
	<path fill="#758B97" d="M247.939,25.989L248.358,0l17.206,0.277l-0.067,4.176l-12.238-0.197l-0.101,6.191l8.892,0.143l-0.067,4.175
		l-8.891-0.143l-0.117,7.271l12.634,0.204l-0.067,4.175L247.939,25.989z"/>
	<path fill="#758B97" d="M287.452,9.806c-0.438-2.108-1.758-3.697-4.069-4.056c-2.134-0.332-3.796,0.285-4.105,2.276
		c-0.685,4.411,12.69,5.541,11.397,13.864c-0.817,5.264-4.534,7.382-10.225,6.499c-4.197-0.652-7.781-3.612-8.659-7.574l4.331-1.148
		c0.798,2.601,2.079,4.439,4.96,4.886c2.454,0.381,4.482-0.251,4.869-2.741c0.784-5.05-12.602-6.109-11.375-14.005
		c0.713-4.588,4.957-6.588,9.403-5.898c4.126,0.641,7.22,3.234,8.169,7.206L287.452,9.806z"/>
	<path fill="#758B97" d="M320.145,11.295l-1.242,3.986l-6.495-2.024l-6.502,20.858l-4.742-1.478l6.502-20.858l-6.494-2.024
		l1.242-3.986L320.145,11.295z"/>
	<path fill="#758B97" d="M332.134,16.403l5.606,2.63l-4.373,26.699l-4.465-2.095l1.081-5.696l-7.431-3.486l-3.787,4.427
		l-4.465-2.095L332.134,16.403z M325.273,31.198l5.476,2.569l2.16-11.473l-0.064-0.031L325.273,31.198z"/>
	<path fill="#758B97" d="M365.726,35.922l4.089,2.822l-9.242,13.394c-4.313,6.252-9.577,5.639-13.933,2.633
		c-4.356-3.006-6.798-7.708-2.483-13.961l9.242-13.394l4.089,2.822l-9.364,13.572c-2.393,3.467-1.868,5.623,0.888,7.524
		s4.958,1.627,7.35-1.84L365.726,35.922z"/>
	<path fill="#758B97" d="M361.51,65.543l18.178-18.585l7.414,7.251c4.222,4.129,3.528,8.236,0.558,11.325
		c-2.215,2.316-5.186,3.037-8.08,1.464l-4.015,12.292l-3.938-3.852l3.901-10.992l-3.063-2.996l-7.401,7.568L361.51,65.543z
		 M375.284,58.567l2.625,2.568c2.78,2.719,4.486,2.675,6.198,0.924s1.513-3.658-0.444-5.571l-3.243-3.172L375.284,58.567z"/>
	<path fill="#758B97" d="M403.995,73.313l3.688,4.974l-16.511,21.428l-2.938-3.961l3.653-4.501L387,84.659l-5.433,2.101
		l-2.938-3.961L403.995,73.313z M390.939,83.082l3.602,4.858l7.343-9.074l-0.043-0.058L390.939,83.082z"/>
	<path fill="#758B97" d="M394.313,104.84l23.136-11.833l2.359,4.614l-11.11,17.164l0.032,0.064l15.766-8.063l2.13,4.166
		l-23.135,11.833l-2.18-4.262l11.636-17.876l-0.033-0.064l-16.47,8.423L394.313,104.84z"/>
	<path fill="#758B97" d="M436.322,138.278l-3.974,1.285l-2.094-6.474l-20.794,6.724l-1.528-4.727l20.793-6.725l-2.094-6.474
		l3.974-1.285L436.322,138.278z"/>
</g>
<g>
	<path fill="#758B97" d="M121.366,275.966l4.813,6.539c2.586,3.513,3.085,6.645,0.081,9.156c-1.829,1.347-3.802,1.632-5.977,0.262
		c0.761,2.976,0.286,4.528-2.397,6.504c-2.732,2.012-6.055,1.485-9.359-3.004l-4.777-6.49L121.366,275.966z M108.962,290.288
		l2.479,3.367c1.437,1.951,2.943,2.159,4.627,0.92s1.934-2.74,0.496-4.691l-2.479-3.367L108.962,290.288z M116.818,284.505
		l2.478,3.367c1.186,1.61,2.706,1.733,3.926,0.835s1.555-2.386,0.369-3.996l-2.479-3.367L116.818,284.505z"/>
	<path fill="#758B97" d="M138.971,297.728l3.647,3.722l-11.295,19.77l-2.906-2.964l2.527-4.174l-4.836-4.934l-4.287,2.378
		l-2.906-2.964L138.971,297.728z M129.211,307.379l3.563,3.635l5.076-8.412l-0.042-0.044L129.211,307.379z"/>
	<path fill="#758B97" d="M138.593,327.342l13.826-16.955l3.24,2.643l-13.826,16.955L138.593,327.342z"/>
	<path fill="#758B97" d="M151.026,337.033l11.756-18.453l7.36,4.689c4.191,2.67,4.332,6.173,2.42,9.23
		c-1.424,2.291-3.746,3.398-6.402,2.604l-1.179,10.818l-3.91-2.491l1.311-9.728l-3.041-1.938l-4.787,7.514L151.026,337.033z
		 M161.164,328.903l2.606,1.661c2.761,1.758,4.158,1.427,5.265-0.312c1.107-1.738,0.613-3.274-1.329-4.512l-3.221-2.052
		L161.164,328.903z"/>
	<path fill="#758B97" d="M174.205,350.751l9.023-19.93l13.194,5.974l-1.45,3.202l-9.385-4.249l-2.149,4.748l6.817,3.086
		l-1.449,3.202l-6.818-3.087l-2.524,5.576l9.689,4.387l-1.45,3.202L174.205,350.751z"/>
	<path fill="#758B97" d="M197.347,360.427l5.982-21.042l4.197,1.193l4.2,16.691l0.059,0.017l4.076-14.339l3.789,1.077l-5.982,21.042
		l-3.876-1.102l-4.339-17.425l-0.059-0.016l-4.259,14.979L197.347,360.427z"/>
	<path fill="#758B97" d="M225.178,367.195l3.371-21.615l4.131,0.645l-3.371,21.615L225.178,367.195z"/>
	<path fill="#758B97" d="M242.361,369.233l-1.813-0.128l0.302-4.292l4.171,0.293l-0.301,4.292l-2.253,4.398l-1.965-0.138
		L242.361,369.233z"/>
	<path fill="#758B97" d="M268.075,347.547l7.184-0.897c5.742-0.717,10.107,1.975,11.095,9.636
		c0.928,7.669-2.643,11.351-8.384,12.068l-7.185,0.896L268.075,347.547z M274.498,365.245l2.766-0.346
		c4.749-0.593,5.426-4.219,4.941-8.096c-0.483-3.878-2.031-7.227-6.781-6.633l-2.766,0.345L274.498,365.245z"/>
	<path fill="#758B97" d="M297.579,365.067l-5.972-21.043l4.022-1.141l2.382,8.394l8.102-2.3l-2.382-8.394l4.022-1.141l5.971,21.042
		l-4.021,1.142l-2.563-9.035l-8.103,2.299l2.563,9.035L297.579,365.067z"/>
	<path fill="#758B97" d="M319.472,334.66l4.748-2.146l14.683,17.398l-3.782,1.71l-3.051-3.807l-6.294,2.846l0.761,4.843l-3.782,1.71
		L319.472,334.66z M325.181,347.14l4.638-2.097l-6.155-7.656l-0.055,0.024L325.181,347.14z"/>
	<path fill="#758B97" d="M335.341,326.944l6.108-3.888c4.882-3.106,9.979-2.545,14.152,3.956c4.122,6.534,2.473,11.391-2.409,14.497
		l-6.108,3.888L335.341,326.944z M348.725,340.188l2.352-1.496c4.038-2.57,3.097-6.137,0.999-9.434
		c-2.099-3.297-4.932-5.66-8.97-3.09l-2.352,1.496L348.725,340.188z"/>
	<path fill="#758B97" d="M369.308,330.065L355.492,313.1l3.243-2.641l13.815,16.966L369.308,330.065z"/>
	<path fill="#758B97" d="M381.436,319.774l-15.766-15.17l3.026-3.145l16.71,4.136l0.042-0.043l-10.743-10.338l2.731-2.839
		l15.766,15.171l-2.795,2.903l-17.422-4.358l-0.042,0.044l11.224,10.8L381.436,319.774z"/>
	<path fill="#758B97" d="M394.554,280.056c-2.359-0.442-3.801,0.023-5.061,1.806c-1.783,2.524-0.133,5.545,3.827,8.343
		c3.762,2.658,7.134,2.927,8.813,0.551c1.574-2.228,1.104-4.713-0.898-6.238l-2.396,3.391l-2.871-2.028l4.722-6.683l9.033,6.383
		l-1.748,2.475l-1.832-1.294c0.57,2.555,0.121,4.241-1.208,6.122c-3.428,4.851-8.88,4.375-13.929,0.809
		c-4.554-3.218-8.23-8.413-4.191-14.13c2.519-3.564,5.918-4.279,9.136-3.267L394.554,280.056z"/>
</g>
<g>
	<path fill="#758B97" d="M224.376,285.252c-0.955,0-6.076-1.354-9.363-5.384c-3.65-4.468-1.057-15.418,0.354-22.834
		c1.41-7.414,3.768-24.719,4.826-36.487c1.057-11.772,0.939-43.904,0.703-51.203c-0.232-7.299-1.057-6.476-2.703-10.006
		c-1.646-3.533-6.121-5.886-7.182-13.417c-1.061-7.535,1.061-24.956,2.592-41.906c1.525-16.95,1.977-13.774,1.977-11.418
		c0,2.354-0.566,44.024-0.213,46.259c0.352,2.236,3.529,1.764,3.768,0c0.232-1.765,0.646-3.165,0.941-12.24
		c0.381-11.759,0.127-35.333,2.082-35.911c1.074-0.319,0.564,46.209,0.623,48.386"/>
	<path fill="#758B97" d="M225.321,285.252c0.955,0,6.078-1.354,9.363-5.384c3.654-4.468,1.061-15.418-0.35-22.834
		c-1.41-7.414-3.768-24.719-4.83-36.487c-1.053-11.772-0.939-43.904-0.703-51.203s1.057-6.476,2.703-10.006
		c1.648-3.533,6.121-5.886,7.184-13.417c1.061-7.535-1.063-24.956-2.59-41.906c-1.525-16.95-1.977-13.774-1.977-11.418
		c0,2.354,0.563,44.024,0.213,46.259c-0.355,2.236-3.533,1.764-3.768,0c-0.236-1.765-0.65-3.165-0.941-12.24
		c-0.381-11.759-0.131-35.333-2.084-35.911c-1.076-0.319-0.566,46.209-0.621,48.386"/>
	<path fill="#758B97" d="M221.784,139.211c0,0,3.902,2.914,5.643-0.459l0.201,7.143l-0.328,12.84l-0.725,20.635l-0.109,20.526
		l0.725,47.434l-0.428,34.803l-1.059,3.08c0,0-1.348,0.366-2.34-0.365c-0.99-0.732-1.982-3.328-1.982-3.328l-0.896-44.186
		l2.076-30.495l-0.094-37.199l-1.416-26.247L221.784,139.211z"/>
</g>
<path fill="#758B97" d="M301.31,151.417c6.803-4.13,15.799-13.129,13.121-31.366c-2.672-18.238-11.504-26.265-14.625-29.143
	c-2.6-2.398-5.338-2.487-6.18-2.449c-0.836-0.039-3.566,0.05-6.174,2.449c-3.125,2.878-11.959,10.905-14.637,29.143
	c-2.674,18.236,6.326,27.235,13.135,31.366c6.807,4.135,4.377,15.568,4.131,24.561c-0.244,9-1.211,40.856-2.43,51.8
	c-1.215,10.944-6.324,32.095-6.807,37.934c-0.488,5.838-0.488,17.262,11.184,17.262h1.324h0.545h1.328
	c11.674,0,11.674-11.424,11.189-17.262c-0.492-5.839-5.598-26.989-6.816-37.934c-1.211-10.944-2.186-42.8-2.426-51.8
	C296.931,166.984,294.493,155.551,301.31,151.417"/>
<g>
	<path fill="#758B97" d="M66.957,432.223c-1.998,0.519-2.072-1.184,0.37-1.48c9.25-1.109,5.032-19.463-18.798-10.952
		c-8.807,3.182-13.986,11.471-3.996,17.613c4.515,2.738,11.989,5.328,17.465,8.732c15.098,9.324,5.181,23.237-7.326,30.712
		c-16.725,9.991-48.251,7.919-49.51-12.951c-0.369-7.03,5.402-17.095,12.655-20.499c1.036-0.444,3.183-0.74,0.74,1.11
		c-1.998,1.554-3.774,3.404-5.106,5.55c-2.664,4.145-4.07,9.103-4.145,13.839c-0.147,18.354,26.42,20.277,41.221,12.581
		c12.434-6.513,17.688-19.241,8.733-26.493c-4.589-3.701-14.506-6.365-20.056-10.065c-11.027-7.326-4.292-18.279,6.513-22.127
		c7.4-2.591,18.427-3.034,23.755-0.37c5.255,2.59,7.031,8.658,2.442,12.433C70.731,430.816,69.103,431.631,66.957,432.223z"/>
	<path fill="#758B97" d="M81.382,476.182c-3.7,0-7.03-2.442-7.104-7.104c-0.074-4.44,2.442-9.99,5.698-13.839
		c3.774-4.44,9.399-7.253,12.655-4.811c2.813,2.146,0.666,7.179-4.07,10.805c-2.294,1.702-7.104,3.257-9.103,3.257
		c-1.11,2.664-2.368,10.139,2.516,10.139c6.513,0,10.509-8.732,12.211-12.655c0.593-1.332,2.072-1.48,1.332,0.074
		C92.779,467.967,89.597,476.182,81.382,476.182z M84.416,456.274c-1.924,2.368-3.774,5.624-4.44,6.956
		c1.332,0,5.181-1.036,7.845-3.256C93.889,454.868,93.519,445.248,84.416,456.274z"/>
	<path fill="#758B97" d="M103.878,475.812c-2.517,0.592-7.031-1.628-4.07-9.324c1.109-3.034,3.773-6.883,4.588-8.732
		c1.036-2.442-1.554-3.404-5.698-3.479l-0.889,2.368c-1.775,4.662-5.328,12.877-8.954,16.355c-0.592,0.518-1.036-0.297-0.592-0.963
		c5.846-7.696,9.916-18.871,11.396-27.159c0.74-4.145,5.551-2.295,4.515,2.664c-0.444,2.072-2.813,4.07-4.07,4.958
		c2.738,0.148,6.586,0.074,10.212-0.296c0.519,1.036-0.666,3.849-1.554,5.698c-1.11,2.294-8.658,15.837-4.218,16.06
		c3.034,0.073,7.622-9.177,9.176-12.359c0.666-1.258,1.629-0.74,0.889,0.74C112.462,466.783,108.688,474.628,103.878,475.812z"/>
	<path fill="#758B97" d="M132.959,451.39c-1.702,5.329-7.918,26.938-18.131,24.866c-4.44-0.888-2.59-7.549-0.518-13.247
		c-0.814,1.258-1.776,0.814-1.333-0.222l1.333-2.517c1.479-2.886,2.22-8.658,0.222-9.177c0,0,3.034-0.518,3.626-0.592
		c2.146-0.222,2.813-0.592,2.664,3.034c-0.073,2.442-1.184,6.513-2.146,8.955c-1.851,4.884-3.7,10.36-1.776,11.248
		c3.552,1.555,7.549-4.662,10.509-11.988c-1.036-2.294-1.258-5.402-0.592-7.4c2.071-6.587,7.696-6.587,6.29-3.331
		C133.033,451.094,132.959,451.242,132.959,451.39z"/>
	<path fill="#758B97" d="M135.548,474.258c1.11,0.147,2.517-0.666,3.33-1.406c2.442-2.442,4.885-7.03,6.957-11.175
		c0.592-1.332,1.628-0.814,0.962,0.666c-1.924,4.145-6.143,13.543-11.619,13.543c-5.55,0-5.55-5.772-3.996-9.621l4.736-12.063
		c0.592-1.406-0.444-2.738-0.74-3.108l4.07-0.074c2.368,0,2.368,0.814,1.555,2.591l-5.921,13.839c0,0-0.74,1.628-0.888,2.146
		C133.328,472.037,133.476,474.109,135.548,474.258z M140.876,447.985c-1.702,0-2.812-1.332-2.59-3.034
		c0.296-1.702,1.924-3.034,3.553-3.034c1.701,0,2.886,1.332,2.59,3.034S142.578,447.985,140.876,447.985z"/>
	<path fill="#758B97" d="M159.524,476.182c-2.59,0-6.143-1.776-3.922-8.658c0.592-1.925,1.998-4.44,4.07-7.771
		c1.776-2.887,0.444-4.885-5.255,0.443c-2.516,2.295-6.142,6.438-10.286,14.653c-0.592,1.036-1.258,1.11-2.813,1.11
		c-1.11,0.074-1.776,0-2.516,0.443c3.552-7.03,6.586-14.061,10.212-20.721c1.925-3.553,2.887-4.811,5.255-4.663
		c0.962,0.074,2.072,0.519,3.108,0.297c-2.221,1.184-6.291,8.584-8.955,13.912c1.48-1.85,3.849-4.662,6.143-6.66
		c3.552-3.182,11.175-7.845,13.69-6.956c0,0-7.918,13.913-8.88,19.093c-0.593,3.034,0.222,3.7,1.184,3.7
		c3.849,0,8.585-9.694,10.139-12.803c0.593-1.332,1.776-0.813,1.036,0.666C169.516,466.783,165.223,476.182,159.524,476.182z"/>
	<path fill="#758B97" d="M189.346,476.773c-3.256,9.325-13.024,22.498-23.755,22.498c-4.663,0-6.957-1.851-6.957-5.698
		c0-3.627,2.887-6.438,6.438-8.511c7.253-4.292,13.987-5.698,19.686-7.992c0.888-2.591,1.406-5.255,1.702-8.215
		c0.296-2.887,0.296-5.255,0.074-6.068c-2.368,4.588-8.289,14.579-14.209,12.803c-7.4-3.183-2.961-13.839,2.516-20.352
		c4.366-5.254,11.619-7.771,17.17-3.404c2.59,2.146,0,4.366-0.814,2.146c-1.924-5.255-7.4-2.294-11.915,2.738
		c-5.402,6.068-9.547,15.022-5.698,16.725c4.366,1.851,11.545-9.473,12.951-14.135c1.036-3.404,3.404-2.072,4.588-2.96
		c0.962,5.92,0.592,12.137-0.962,17.983c1.776-1.259,3.7-2.813,5.181-4.811c2.441-3.257,3.552-6.438,4.292-7.845
		c0.666-1.332,1.851-0.888,1.11,0.592C196.969,470.039,194.822,474.184,189.346,476.773z M181.428,480.104
		c-5.402,1.85-11.619,3.996-16.281,7.104c-4.811,3.182-7.475,10.582-1.332,10.582c3.182,0,7.549-2.516,9.324-3.848
		c2.295-1.851,4.589-4.515,6.661-7.253c1.775-2.517,3.182-4.958,4.218-7.475L181.428,480.104z"/>
	<path fill="#758B97" d="M276.298,432.223c-1.998,0.519-2.072-1.184,0.37-1.48c9.25-1.109,5.032-19.463-18.798-10.952
		c-8.807,3.182-13.986,11.471-3.996,17.613c4.515,2.738,11.989,5.328,17.465,8.732c15.098,9.324,5.181,23.237-7.326,30.712
		c-16.725,9.991-48.251,7.919-49.51-12.951c-0.369-7.03,5.402-17.095,12.655-20.499c1.036-0.444,3.183-0.74,0.74,1.11
		c-1.998,1.554-3.774,3.404-5.106,5.55c-2.664,4.145-4.07,9.103-4.145,13.839c-0.147,18.354,26.42,20.277,41.221,12.581
		c12.434-6.513,17.688-19.241,8.733-26.493c-4.589-3.701-14.506-6.365-20.056-10.065c-11.027-7.326-4.293-18.279,6.513-22.127
		c7.4-2.591,18.427-3.034,23.755-0.37c5.255,2.59,7.031,8.658,2.442,12.433C280.072,430.816,278.443,431.631,276.298,432.223z"/>
	<path fill="#758B97" d="M288.059,474.258c1.11,0.147,2.517-0.666,3.33-1.406c2.442-2.442,4.885-7.03,6.957-11.175
		c0.592-1.332,1.628-0.814,0.962,0.666c-1.924,4.145-6.143,13.543-11.619,13.543c-5.55,0-5.55-5.772-3.996-9.621l4.736-12.063
		c0.592-1.406-0.444-2.738-0.74-3.108l4.07-0.074c2.368,0,2.368,0.814,1.555,2.591l-5.921,13.839c0,0-0.74,1.628-0.888,2.146
		C285.839,472.037,285.986,474.109,288.059,474.258z M293.387,447.985c-1.702,0-2.812-1.332-2.59-3.034
		c0.296-1.702,1.924-3.034,3.552-3.034c1.702,0,2.887,1.332,2.591,3.034S295.089,447.985,293.387,447.985z"/>
	<path fill="#758B97" d="M312.035,476.182c-2.59,0-6.143-1.776-3.922-8.658c0.592-1.925,1.998-4.44,4.07-7.771
		c1.776-2.887,0.444-4.885-5.255,0.443c-2.516,2.295-6.142,6.438-10.286,14.653c-0.592,1.036-1.259,1.11-2.813,1.11
		c-1.11,0.074-1.776,0-2.516,0.443c3.552-7.03,6.586-14.061,10.212-20.721c1.925-3.553,2.887-4.811,5.255-4.663
		c0.962,0.074,2.072,0.519,3.108,0.297c-2.221,1.184-6.291,8.584-8.955,13.912c1.48-1.85,3.849-4.662,6.143-6.66
		c3.552-3.182,11.175-7.845,13.69-6.956c0,0-7.918,13.913-8.88,19.093c-0.593,3.034,0.222,3.7,1.184,3.7
		c3.849,0,8.585-9.694,10.139-12.803c0.592-1.332,1.776-0.813,1.036,0.666C322.026,466.783,317.733,476.182,312.035,476.182z"/>
	<path fill="#758B97" d="M329.276,476.182c-11.693,0-7.845-13.32-2.517-20.499c2.738-3.7,6.364-5.847,9.917-5.847
		c3.7,0,5.477,2.072,5.106,5.106c-0.296,2.442-3.331,5.55-4.959,3.922c0.814-0.962,1.925-2.441,2.294-3.774
		c0.667-2.59-0.073-3.626-1.479-3.626c-2.664,0-5.847,3.404-7.919,6.364c-1.332,1.925-4.07,7.031-4.07,11.323
		c0,2.96,1.185,5.698,4.366,5.698c6.438,0,9.991-7.179,12.951-13.024c0.666-1.333,1.702-0.963,1.036,0.518
		C340.377,470.039,337.417,476.182,329.276,476.182z"/>
	<path fill="#758B97" d="M347.628,476.182c-3.7,0-7.03-2.442-7.104-7.104c-0.074-4.44,2.442-9.99,5.698-13.839
		c3.774-4.44,9.399-7.253,12.655-4.811c2.813,2.146,0.666,7.179-4.07,10.805c-2.294,1.702-7.104,3.257-9.103,3.257
		c-1.11,2.664-2.368,10.139,2.516,10.139c6.513,0,10.509-8.732,12.211-12.655c0.593-1.332,2.072-1.48,1.332,0.074
		C359.025,467.967,355.843,476.182,347.628,476.182z M350.662,456.274c-1.924,2.368-3.774,5.624-4.44,6.956
		c1.332,0,5.181-1.036,7.845-3.256C360.135,454.868,359.765,445.248,350.662,456.274z"/>
	<path fill="#758B97" d="M406.754,434.961l-22.128,40.555c-0.74,0.444-2.96,0.444-3.848,0.519c-0.148,0-0.519-0.148-0.666-0.148
		l-0.074-0.444c6.734-11.914,13.32-23.829,19.981-35.67c-3.774,3.404-7.696,6.438-12.063,9.103h-0.296l-0.296-0.592l0.148-0.444
		c4.958-3.774,9.324-6.957,13.543-11.396c0.813-0.889,2.072-2.295,3.33-2.442l2.294-0.223c0.148-0.073,0.296,0,0.444,0.074v0.37
		L406.754,434.961z"/>
	<path fill="#758B97" d="M408.675,477.514h-0.444l-0.37-0.666l0.296-0.444c11.027-7.771,19.242-17.909,22.646-31.229
		c0.444-1.702,0.74-3.553,0.74-5.328c0-2.738-0.962-5.106-4.07-5.106c-7.03,0-14.209,10.805-14.209,17.316
		c0,2.368,1.11,4.145,3.7,4.145c5.181,0,8.437-6.216,10.139-10.286l0.297-0.223l0.813,0.074l0.074,0.37
		c-2.072,5.328-7.475,14.356-13.987,14.356c-3.404,0-5.254-2.516-5.254-5.771c0-8.363,11.175-21.536,19.686-21.536
		c5.106,0,7.252,4.44,7.252,8.955C435.982,455.904,419.258,470.558,408.675,477.514z"/>
	<path fill="#758B97" d="M440.865,477.514h-0.444l-0.37-0.666l0.296-0.444c11.027-7.771,19.242-17.909,22.646-31.229
		c0.443-1.702,0.739-3.553,0.739-5.328c0-2.738-0.962-5.106-4.07-5.106c-7.03,0-14.209,10.805-14.209,17.316
		c0,2.368,1.11,4.145,3.7,4.145c5.181,0,8.437-6.216,10.139-10.286l0.297-0.223l0.813,0.074l0.074,0.37
		c-2.072,5.328-7.475,14.356-13.987,14.356c-3.404,0-5.254-2.516-5.254-5.771c0-8.363,11.175-21.536,19.686-21.536
		c5.106,0,7.252,4.44,7.252,8.955C468.173,455.904,451.448,470.558,440.865,477.514z"/>
	<path fill="#758B97" d="M473.055,477.514h-0.444l-0.37-0.666l0.296-0.444c11.027-7.771,19.242-17.909,22.646-31.229
		c0.443-1.702,0.739-3.553,0.739-5.328c0-2.738-0.962-5.106-4.07-5.106c-7.03,0-14.209,10.805-14.209,17.316
		c0,2.368,1.11,4.145,3.7,4.145c5.181,0,8.437-6.216,10.139-10.286l0.297-0.223l0.813,0.074l0.074,0.37
		c-2.072,5.328-7.475,14.356-13.987,14.356c-3.404,0-5.254-2.516-5.254-5.771c0-8.363,11.175-21.536,19.686-21.536
		c5.106,0,7.252,4.44,7.252,8.955C500.362,455.904,483.638,470.558,473.055,477.514z"/>
</g>
<path fill="none" d="M340.499,171.169h36.844c-0.09-0.687-0.172-1.377-0.271-2.061l2.715-1.396l-0.91-5.144l-3.012-0.384
	c-0.25-1.205-0.516-2.404-0.801-3.598l2.574-1.624l-1.35-5.042l-3.033-0.118c-0.352-1.185-0.723-2.358-1.111-3.521l2.412-1.836
	l-1.787-4.91l-3.025,0.145c-0.455-1.141-0.93-2.278-1.414-3.408l2.248-2.038l-2.209-4.733l-3.016,0.407
	c-0.549-1.096-1.117-2.187-1.703-3.269l2.064-2.231l-2.609-4.523l-2.975,0.673c-0.643-1.044-1.301-2.078-1.979-3.102l1.871-2.416
	l-3.002-4.275l-2.91,0.932c-0.73-0.981-1.479-1.951-2.236-2.911l1.656-2.574l-3.357-4.005l-2.826,1.188
	c-0.813-0.912-1.643-1.815-2.482-2.705l1.432-2.714l-3.695-3.692l-2.715,1.428c-0.891-0.839-1.789-1.664-2.705-2.477l1.189-2.83
	l-4.004-3.354l-2.574,1.655c-0.961-0.758-1.932-1.506-2.91-2.239l0.932-2.914l-4.279-2.995l-2.414,1.868
	c-1.018-0.672-2.057-1.333-3.102-1.978l0.674-2.976l-4.523-2.61l-2.232,2.069c-1.08-0.588-2.17-1.157-3.271-1.707l0.416-3.015
	l-4.734-2.203l-2.045,2.245c-1.125-0.488-2.264-0.96-3.41-1.414l0.146-3.034l-4.904-1.779l-1.838,2.412
	c-1.162-0.385-2.34-0.759-3.52-1.112l-0.119-3.029l-5.043-1.353l-1.623,2.574c-1.193-0.288-2.393-0.553-3.602-0.8l-0.381-3.016
	l-5.143-0.903l-1.4,2.708c-1.207-0.173-2.424-0.338-3.648-0.477l-0.646-2.985l-5.199-0.454l-1.164,2.834
	c-1.217-0.069-2.436-0.12-3.666-0.159l-0.906-2.926h-5.227l-0.906,2.926c-1.23,0.039-2.449,0.09-3.668,0.159l-1.16-2.834
	l-5.203,0.454l-0.648,2.985c-1.221,0.139-2.434,0.304-3.648,0.477l-1.396-2.708l-5.143,0.903l-0.381,3.016
	c-1.209,0.247-2.412,0.512-3.604,0.8l-1.619-2.574l-5.045,1.353l-0.119,3.029c-1.182,0.354-2.357,0.728-3.52,1.112l-1.838-2.412
	l-4.908,1.782l0.146,3.031c-1.143,0.454-2.281,0.926-3.408,1.414l-2.043-2.245l-4.73,2.203l0.406,3.015
	c-1.096,0.55-2.186,1.121-3.266,1.707l-2.234-2.069l-4.523,2.61l0.674,2.976c-1.045,0.645-2.078,1.306-3.1,1.978l-2.416-1.868
	l-4.277,2.995l0.932,2.914c-0.982,0.733-1.951,1.481-2.912,2.239l-2.574-1.655l-4.002,3.357l1.186,2.827
	c-0.914,0.813-1.813,1.64-2.703,2.48l-2.713-1.432l-3.697,3.695l1.43,2.711c-0.84,0.89-1.664,1.793-2.48,2.705l-2.824-1.185
	l-3.361,4.002l1.66,2.574c-0.762,0.96-1.508,1.93-2.24,2.911l-2.91-0.932l-2.998,4.275l1.871,2.416
	c-0.676,1.023-1.336,2.061-1.98,3.102l-2.977-0.673l-2.607,4.526l2.064,2.231c-0.584,1.079-1.154,2.173-1.705,3.271l-3.014-0.413
	l-2.207,4.733l2.248,2.038c-0.49,1.13-0.959,2.268-1.414,3.411l-3.025-0.143l-1.791,4.905l2.418,1.836
	c-0.387,1.163-0.758,2.337-1.115,3.521l-3.029,0.118l-1.352,5.045l2.57,1.621c-0.281,1.193-0.549,2.395-0.797,3.6l-3.012,0.382
	l-0.912,5.144l2.717,1.396c-0.102,0.685-0.182,1.374-0.271,2.061h31.107V242.5h-18.856c0.47,0.93,0.946,1.855,1.44,2.77l-2.064,2.23
	l2.611,4.529l2.975-0.674c0.643,1.041,1.303,2.078,1.979,3.098l-1.869,2.418l2.996,4.275l2.914-0.932
	c0.73,0.98,1.479,1.951,2.236,2.91l-1.656,2.576l3.357,4.002l2.824-1.189c0.818,0.916,1.643,1.816,2.484,2.705l-1.432,2.715
	l3.695,3.695l2.717-1.432c0.889,0.844,1.787,1.67,2.701,2.482l-1.186,2.83l4,3.354l2.58-1.656c0.957,0.762,1.928,1.506,2.912,2.24
	l-0.938,2.91l4.277,2.998l2.416-1.871c1.021,0.674,2.059,1.336,3.102,1.98l-0.676,2.975l4.523,2.611l2.238-2.068
	c1.078,0.586,2.17,1.154,3.268,1.705l-0.412,3.016l4.732,2.207l2.045-2.252c1.127,0.49,2.262,0.963,3.408,1.418l-0.146,3.031
	l4.904,1.781l1.84-2.412c1.166,0.389,2.336,0.756,3.518,1.109l0.123,3.033l5.041,1.352l1.621-2.574
	c1.195,0.285,2.393,0.557,3.602,0.797l0.381,3.018l5.143,0.91l1.4-2.715c1.211,0.178,2.424,0.336,3.645,0.479l0.648,2.986
	l5.207,0.451l1.158-2.836c1.221,0.07,2.436,0.123,3.666,0.16l0.906,2.928h5.227l0.91-2.928c1.227-0.037,2.445-0.09,3.664-0.16
	l1.162,2.836l5.205-0.455l0.645-2.986c1.221-0.139,2.438-0.297,3.646-0.475l1.398,2.715l5.143-0.91l0.381-3.018
	c1.209-0.246,2.408-0.512,3.602-0.797l1.623,2.574l5.043-1.352l0.119-3.033c1.184-0.354,2.357-0.725,3.52-1.111l1.838,2.414
	l4.908-1.781l-0.15-3.031c1.146-0.459,2.285-0.928,3.41-1.418l2.045,2.248l4.734-2.203l-0.412-3.016
	c1.098-0.551,2.188-1.123,3.268-1.705l2.232,2.068l4.523-2.611l-0.672-2.975c1.043-0.65,2.082-1.309,3.1-1.98l2.414,1.869
	l4.279-2.996l-0.932-2.91c0.98-0.734,1.951-1.482,2.91-2.24l2.578,1.656l4-3.354l-1.186-2.832c0.912-0.811,1.811-1.637,2.701-2.48
	l2.715,1.432l3.695-3.697l-1.432-2.715c0.84-0.887,1.67-1.787,2.482-2.703l2.83,1.189l3.354-4.002l-1.656-2.576
	c0.762-0.959,1.506-1.932,2.236-2.91l2.918,0.932l2.994-4.279l-1.871-2.414c0.678-1.023,1.336-2.057,1.979-3.102l2.979,0.676
	l2.605-4.527l-2.063-2.234c0.494-0.911,0.971-1.837,1.439-2.766h-24.592V171.169z"/>
<path fill="#758B97" d="M382.565,240.383l1.664-0.6c2.129-0.762,3.654-2.281,4.428-4.41c0.775-2.125,0.582-4.266-0.559-6.221
	l-0.889-1.529c-1.023-1.76-1.277-3.646-0.75-5.609c0.525-1.969,1.686-3.471,3.455-4.486l1.537-0.875
	c1.963-1.125,3.197-2.885,3.592-5.113c0.393-2.229-0.168-4.307-1.629-6.031l-1.145-1.352c-1.313-1.557-1.887-3.365-1.711-5.396
	c0.178-2.033,1.057-3.715,2.625-5.014l1.359-1.135c1.736-1.447,2.65-3.395,2.65-5.656s-0.914-4.209-2.65-5.655l-1.359-1.136
	c-1.568-1.303-2.447-2.984-2.625-5.018c-0.125-1.441,0.137-2.77,0.766-3.978c0.255-0.492,0.565-0.966,0.945-1.416l1.145-1.347
	c1.461-1.729,2.021-3.807,1.629-6.036c-0.395-2.228-1.629-3.987-3.592-5.111l-1.537-0.878c-1.77-1.011-2.93-2.517-3.455-4.482
	c-0.527-1.969-0.273-3.854,0.75-5.614l0.889-1.522c1.141-1.961,1.334-4.103,0.559-6.228c-0.773-2.128-2.299-3.646-4.428-4.409
	l-1.664-0.597c-1.918-0.692-3.32-1.973-4.18-3.818c-0.861-1.847-0.939-3.746-0.238-5.656l0.611-1.659
	c0.783-2.125,0.6-4.265-0.533-6.226c-1.125-1.96-2.893-3.19-5.123-3.574l-1.746-0.302c-2.008-0.343-3.611-1.364-4.779-3.032
	c-1.166-1.67-1.576-3.521-1.213-5.527l0.314-1.74c0.402-2.226-0.148-4.306-1.607-6.041c-1.451-1.731-3.404-2.635-5.666-2.627
	l-1.768,0.006c-2.039,0.009-3.795-0.717-5.238-2.156c-1.438-1.438-2.164-3.196-2.152-5.231l0.008-1.771
	c0.008-2.262-0.895-4.214-2.631-5.67c-1.734-1.453-3.813-2.005-6.037-1.602l-1.74,0.313c-2.006,0.359-3.863-0.048-5.529-1.217
	c-1.672-1.168-2.689-2.771-3.035-4.779l-0.299-1.743c-0.385-2.229-1.613-3.994-3.574-5.126c-1.959-1.133-4.104-1.313-6.225-0.533
	l-1.66,0.613c-1.914,0.706-3.811,0.628-5.656-0.236c-1.85-0.862-3.125-2.265-3.816-4.181l-0.6-1.668
	c-0.764-2.125-2.283-3.651-4.408-4.423c-2.125-0.772-4.27-0.584-6.223,0.558l-1.531,0.887c-1.76,1.029-3.643,1.28-5.607,0.75
	c-1.971-0.527-3.477-1.685-4.486-3.453l-0.881-1.533c-1.121-1.964-2.881-3.202-5.109-3.598c-2.229-0.391-4.303,0.17-6.029,1.631
	l-1.354,1.139c-1.557,1.319-3.365,1.893-5.396,1.715c-2.027-0.176-3.713-1.057-5.016-2.621l-1.131-1.358
	c-1.445-1.74-3.393-2.652-5.66-2.652c-2.26,0-4.209,0.912-5.654,2.652l-1.129,1.358c-1.309,1.564-2.99,2.448-5.018,2.624
	c-2.031,0.175-3.84-0.398-5.396-1.715l-1.354-1.142c-1.727-1.461-3.801-2.021-6.033-1.631c-2.227,0.396-3.984,1.634-5.107,3.595
	l-0.879,1.536c-1.01,1.769-2.516,2.926-4.484,3.456c-1.967,0.527-3.85,0.276-5.611-0.753l-1.529-0.887
	c-1.955-1.142-4.096-1.33-6.225-0.558c-2.123,0.771-3.643,2.298-4.406,4.423l-0.6,1.668c-0.689,1.916-1.969,3.318-3.814,4.181
	c-1.848,0.862-3.746,0.942-5.66,0.236l-1.656-0.613c-2.121-0.78-4.268-0.6-6.229,0.533c-1.957,1.132-3.188,2.897-3.572,5.126
	l-0.301,1.74c-0.342,2.011-1.363,3.614-3.031,4.782c-1.668,1.169-3.525,1.576-5.531,1.214l-1.74-0.313
	c-2.223-0.401-4.305,0.15-6.037,1.604c-1.734,1.456-2.639,3.408-2.631,5.67l0.01,1.769c0.008,2.036-0.719,3.793-2.156,5.231
	c-1.441,1.439-3.199,2.168-5.238,2.159l-1.766-0.006c-2.264-0.011-4.217,0.896-5.67,2.627c-1.455,1.735-2.004,3.813-1.605,6.041
	l0.314,1.737c0.363,2.006-0.045,3.86-1.213,5.53c-1.168,1.668-2.771,2.689-4.781,3.032l-1.742,0.302
	c-2.23,0.381-3.996,1.611-5.125,3.571c-1.131,1.961-1.316,4.104-0.531,6.226l0.611,1.662c0.703,1.91,0.623,3.807-0.236,5.656
	c-0.859,1.846-2.264,3.124-4.184,3.814l-1.662,0.598c-2.131,0.767-3.654,2.284-4.428,4.412c-0.773,2.125-0.586,4.267,0.559,6.225
	l0.887,1.522c1.027,1.76,1.279,3.646,0.75,5.614c-0.527,1.967-1.688,3.473-3.455,4.485l-1.533,0.875
	c-1.967,1.124-3.199,2.887-3.596,5.112c-0.391,2.228,0.168,4.307,1.629,6.035l1.143,1.35c0.381,0.45,0.691,0.924,0.948,1.416
	c0.63,1.208,0.893,2.537,0.765,3.978c-0.178,2.033-1.057,3.715-2.623,5.018l-1.359,1.133c-1.74,1.444-2.652,3.394-2.652,5.658
	c0,2.258,0.912,4.209,2.652,5.656l1.359,1.133c1.566,1.301,2.445,2.982,2.623,5.014c0.18,2.031-0.398,3.84-1.713,5.396l-1.145,1.35
	c-1.463,1.727-2.018,3.805-1.627,6.033c0.393,2.23,1.629,3.988,3.596,5.111l1.533,0.877c1.768,1.012,2.928,2.518,3.455,4.482
	c0.527,1.969,0.277,3.854-0.75,5.613l-0.889,1.527c-1.143,1.959-1.33,4.1-0.559,6.225s2.299,3.643,4.43,4.41l1.658,0.6
	c1.25,0.447,2.258,1.173,3.063,2.117c0.431,0.506,0.82,1.055,1.12,1.699c0.863,1.846,0.939,3.744,0.236,5.654l-0.609,1.658
	c-0.783,2.127-0.598,4.27,0.529,6.227c1.133,1.961,2.895,3.193,5.127,3.576l1.744,0.297c2.006,0.35,3.609,1.365,4.777,3.033
	c1.17,1.67,1.58,3.525,1.215,5.529l-0.313,1.744c-0.402,2.225,0.15,4.305,1.604,6.037c1.455,1.734,3.406,2.639,5.67,2.629
	l1.768-0.004c2.039-0.012,3.793,0.715,5.238,2.152c1.438,1.443,2.162,3.197,2.152,5.234l-0.006,1.771
	c-0.01,2.262,0.893,4.211,2.631,5.666c1.729,1.455,3.813,2.01,6.037,1.604l1.74-0.311c2.006-0.363,3.859,0.045,5.529,1.213
	c1.67,1.17,2.688,2.771,3.031,4.779l0.301,1.744c0.385,2.23,1.615,3.994,3.572,5.129c1.961,1.127,4.105,1.311,6.23,0.529
	l1.656-0.613c1.914-0.703,3.813-0.625,5.656,0.238c1.846,0.861,3.129,2.264,3.816,4.18l0.598,1.664
	c0.768,2.131,2.285,3.656,4.41,4.43c2.125,0.771,4.268,0.582,6.223-0.559l1.531-0.889c1.762-1.027,3.643-1.277,5.611-0.754
	c1.969,0.527,3.473,1.688,4.484,3.455l0.879,1.537c1.121,1.965,2.877,3.201,5.105,3.596c2.232,0.391,4.307-0.17,6.035-1.631
	l1.352-1.141c1.557-1.316,3.365-1.893,5.396-1.713c2.029,0.176,3.709,1.057,5.014,2.621l1.131,1.363
	c1.449,1.736,3.395,2.65,5.656,2.65c2.266,0,4.215-0.914,5.66-2.65l1.133-1.363c1.303-1.564,2.986-2.445,5.014-2.621
	c2.033-0.18,3.84,0.396,5.396,1.713l1.354,1.141c1.729,1.461,3.803,2.023,6.031,1.631c2.229-0.395,3.986-1.631,5.109-3.592
	l0.881-1.541c1.01-1.768,2.514-2.928,4.486-3.455c1.965-0.523,3.848-0.273,5.607,0.754l1.529,0.889
	c1.951,1.141,4.096,1.33,6.225,0.559c2.125-0.773,3.643-2.299,4.408-4.43l0.598-1.664c0.693-1.914,1.969-3.316,3.818-4.18
	c1.846-0.863,3.742-0.941,5.656-0.236l1.66,0.611c2.121,0.781,4.266,0.6,6.225-0.529c1.961-1.135,3.188-2.898,3.572-5.129
	l0.301-1.744c0.346-2.008,1.363-3.609,3.035-4.779c1.666-1.168,3.523-1.576,5.529-1.213l1.74,0.314
	c2.225,0.402,4.303-0.152,6.037-1.607c1.732-1.455,2.639-3.404,2.629-5.666l-0.01-1.771c-0.008-2.037,0.719-3.791,2.156-5.232
	c1.443-1.439,3.199-2.166,5.238-2.154l1.766,0.004c2.264,0.01,4.217-0.895,5.668-2.627c1.457-1.734,2.006-3.813,1.607-6.037
	l-0.314-1.744c-0.363-2.004,0.047-3.859,1.215-5.529c1.166-1.668,2.77-2.686,4.781-3.031l1.74-0.299
	c2.232-0.385,3.996-1.615,5.125-3.574c1.133-1.959,1.316-4.104,0.531-6.225l-0.611-1.664c-0.699-1.91-0.621-3.809,0.24-5.652
	c0.3-0.646,0.689-1.195,1.12-1.701C380.31,241.556,381.316,240.83,382.565,240.383z M378.876,211.342l-3.012,0.381
	c-0.25,1.207-0.516,2.404-0.797,3.598l2.57,1.627l-1.35,5.043l-3.033,0.119c-0.352,1.18-0.723,2.352-1.111,3.52l2.412,1.836
	l-1.787,4.91l-3.025-0.146c-0.455,1.146-0.93,2.277-1.414,3.406l2.248,2.041l-2.209,4.732l-3.016-0.41
	c-0.084,0.169-0.176,0.333-0.262,0.502c-0.469,0.929-0.945,1.854-1.439,2.766l2.063,2.234l-2.605,4.527l-2.979-0.676
	c-0.643,1.045-1.301,2.078-1.979,3.102l1.871,2.414l-2.994,4.279l-2.918-0.932c-0.73,0.979-1.475,1.951-2.236,2.91l1.656,2.576
	l-3.354,4.002l-2.83-1.189c-0.813,0.916-1.643,1.816-2.482,2.703l1.432,2.715l-3.695,3.697l-2.715-1.432
	c-0.891,0.844-1.789,1.67-2.701,2.48l1.186,2.832l-4,3.354l-2.578-1.656c-0.959,0.758-1.93,1.506-2.91,2.24l0.932,2.91l-4.279,2.996
	l-2.414-1.869c-1.018,0.672-2.057,1.33-3.1,1.98l0.672,2.975l-4.523,2.611l-2.232-2.068c-1.08,0.582-2.17,1.154-3.268,1.705
	l0.412,3.016l-4.734,2.203l-2.045-2.248c-1.125,0.49-2.264,0.959-3.41,1.418l0.15,3.031l-4.908,1.781l-1.838-2.414
	c-1.162,0.387-2.336,0.758-3.52,1.111l-0.119,3.033l-5.043,1.352l-1.623-2.574c-1.193,0.285-2.393,0.551-3.602,0.797l-0.381,3.018
	l-5.143,0.91l-1.398-2.715c-1.209,0.178-2.426,0.336-3.646,0.475l-0.645,2.986l-5.205,0.455l-1.162-2.836
	c-1.219,0.07-2.438,0.123-3.664,0.16l-0.91,2.928h-5.227l-0.906-2.928c-1.23-0.037-2.445-0.09-3.666-0.16l-1.158,2.836l-5.207-0.451
	l-0.648-2.986c-1.221-0.143-2.434-0.301-3.645-0.479l-1.4,2.715l-5.143-0.91l-0.381-3.018c-1.209-0.24-2.406-0.512-3.602-0.797
	l-1.621,2.574l-5.041-1.352l-0.123-3.033c-1.182-0.354-2.352-0.721-3.518-1.109l-1.84,2.412l-4.904-1.781l0.146-3.031
	c-1.146-0.455-2.281-0.928-3.408-1.418l-2.045,2.252l-4.732-2.207l0.412-3.016c-1.098-0.551-2.189-1.119-3.268-1.705l-2.238,2.068
	l-4.523-2.611l0.676-2.975c-1.043-0.645-2.08-1.307-3.102-1.98l-2.416,1.871l-4.277-2.998l0.938-2.91
	c-0.984-0.734-1.955-1.479-2.912-2.24l-2.58,1.656l-4-3.354l1.186-2.83c-0.914-0.813-1.813-1.639-2.701-2.482l-2.717,1.432
	l-3.695-3.695l1.432-2.715c-0.842-0.889-1.666-1.789-2.484-2.705l-2.824,1.189l-3.357-4.002l1.656-2.576
	c-0.758-0.959-1.506-1.93-2.236-2.91l-2.914,0.932l-2.996-4.275l1.869-2.418c-0.676-1.02-1.336-2.057-1.979-3.098l-2.975,0.674
	l-2.611-4.529l2.064-2.23c-0.494-0.914-0.971-1.84-1.44-2.77c-0.085-0.168-0.177-0.333-0.261-0.502l-3.016,0.412l-2.209-4.732
	l2.248-2.039c-0.488-1.131-0.959-2.264-1.414-3.408l-3.025,0.146l-1.791-4.91l2.418-1.834c-0.387-1.166-0.758-2.342-1.111-3.523
	l-3.033-0.119l-1.35-5.043l2.568-1.623c-0.279-1.193-0.549-2.395-0.797-3.602l-3.012-0.381l-0.912-5.143l2.717-1.398
	c-0.18-1.209-0.342-2.426-0.48-3.65l-2.984-0.645l-0.457-5.203l2.836-1.16c-0.066-1.217-0.119-2.441-0.152-3.668l-2.932-0.906
	v-5.227l2.932-0.903c0.033-1.229,0.086-2.454,0.152-3.67l-2.836-1.16l0.457-5.204l2.984-0.645c0.061-0.534,0.141-1.061,0.209-1.591
	c0.09-0.687,0.17-1.375,0.271-2.061l-2.717-1.396l0.912-5.144l3.012-0.382c0.248-1.205,0.516-2.406,0.797-3.6l-2.57-1.621
	l1.352-5.045l3.029-0.118c0.357-1.185,0.729-2.358,1.115-3.521l-2.418-1.836l1.791-4.905l3.025,0.143
	c0.455-1.144,0.924-2.281,1.414-3.411l-2.248-2.038l2.207-4.733l3.014,0.413c0.551-1.099,1.121-2.192,1.705-3.271l-2.064-2.231
	l2.607-4.526l2.977,0.673c0.645-1.041,1.305-2.078,1.98-3.102l-1.871-2.416l2.998-4.275l2.91,0.932
	c0.732-0.981,1.479-1.951,2.24-2.911l-1.66-2.574l3.361-4.002l2.824,1.185c0.816-0.912,1.641-1.815,2.48-2.705l-1.43-2.711
	l3.697-3.695l2.713,1.432c0.891-0.841,1.789-1.668,2.703-2.48l-1.186-2.827l4.002-3.357l2.574,1.655
	c0.961-0.758,1.93-1.506,2.912-2.239l-0.932-2.914l4.277-2.995l2.416,1.868c1.021-0.672,2.055-1.333,3.1-1.978l-0.674-2.976
	l4.523-2.61l2.234,2.069c1.08-0.586,2.17-1.157,3.266-1.707l-0.406-3.015l4.73-2.203l2.043,2.245
	c1.127-0.488,2.266-0.96,3.408-1.414l-0.146-3.031l4.908-1.782l1.838,2.412c1.162-0.385,2.338-0.759,3.52-1.112l0.119-3.029
	l5.045-1.353l1.619,2.574c1.191-0.288,2.395-0.553,3.604-0.8l0.381-3.016l5.143-0.903l1.396,2.708
	c1.215-0.173,2.428-0.338,3.648-0.477l0.648-2.985l5.203-0.454l1.16,2.834c1.219-0.069,2.438-0.12,3.668-0.159l0.906-2.926h5.227
	l0.906,2.926c1.23,0.039,2.449,0.09,3.666,0.159l1.164-2.834l5.199,0.454l0.646,2.985c1.225,0.139,2.441,0.304,3.648,0.477
	l1.4-2.708l5.143,0.903l0.381,3.016c1.209,0.247,2.408,0.512,3.602,0.8l1.623-2.574l5.043,1.353l0.119,3.029
	c1.18,0.354,2.357,0.728,3.52,1.112l1.838-2.412l4.904,1.779l-0.146,3.034c1.146,0.454,2.285,0.926,3.41,1.414l2.045-2.245
	l4.734,2.203l-0.416,3.015c1.102,0.55,2.191,1.119,3.271,1.707l2.232-2.069l4.523,2.61l-0.674,2.976
	c1.045,0.645,2.084,1.306,3.102,1.978l2.414-1.868l4.279,2.995l-0.932,2.914c0.979,0.733,1.949,1.481,2.91,2.239l2.574-1.655
	l4.004,3.354l-1.189,2.83c0.916,0.813,1.814,1.638,2.705,2.477l2.715-1.428l3.695,3.692l-1.432,2.714
	c0.84,0.89,1.67,1.793,2.482,2.705l2.826-1.188l3.357,4.005l-1.656,2.574c0.758,0.96,1.506,1.93,2.236,2.911l2.91-0.932l3.002,4.275
	l-1.871,2.416c0.678,1.023,1.336,2.058,1.979,3.102l2.975-0.673l2.609,4.523l-2.064,2.231c0.586,1.082,1.154,2.173,1.703,3.269
	l3.016-0.407l2.209,4.733l-2.248,2.038c0.484,1.13,0.959,2.268,1.414,3.408l3.025-0.145l1.787,4.91l-2.412,1.836
	c0.389,1.163,0.76,2.337,1.111,3.521l3.033,0.118l1.35,5.042l-2.574,1.624c0.285,1.193,0.551,2.393,0.801,3.598l3.012,0.384
	l0.91,5.144l-2.715,1.396c0.1,0.684,0.182,1.374,0.271,2.061c0.068,0.53,0.146,1.056,0.209,1.591l2.986,0.645l0.455,5.204
	l-2.84,1.16c0.072,1.213,0.123,2.44,0.156,3.667l2.932,0.906v5.225l-2.932,0.908c-0.033,1.227-0.084,2.449-0.156,3.668l2.84,1.156
	l-0.455,5.207l-2.986,0.645c-0.143,1.225-0.305,2.441-0.48,3.648l2.715,1.396L378.876,211.342z"/>
</svg>
